<svg width="24" height="24" viewBox="0 0 24 24" fill="none" xmlns="http://www.w3.org/2000/svg">
<path fill-rule="evenodd" clip-rule="evenodd" d="M14.8284 13.8284C14.0783 14.5786 13.0609 15 12 15C10.9391 15 9.92172 14.5786 9.17157 13.8284C8.42143 13.0783 8 12.0609 8 11V5C8 3.93913 8.42143 2.92172 9.17157 2.17157C9.92172 1.42143 10.9391 1 12 1C13.0609 1 14.0783 1.42143 14.8284 2.17157C15.5786 2.92172 16 3.93913 16 5V11C16 12.0609 15.5786 13.0783 14.8284 13.8284ZM19.7071 10.2929C19.8946 10.4804 20 10.7348 20 11C19.9982 12.9473 19.2863 14.8271 17.9976 16.287C16.7089 17.7469 14.932 18.6866 13 18.93V21H15C15.2652 21 15.5196 21.1054 15.7071 21.2929C15.8946 21.4804 16 21.7348 16 22C16 22.2652 15.8946 22.5196 15.7071 22.7071C15.5196 22.8946 15.2652 23 15 23H9C8.73478 23 8.48043 22.8946 8.29289 22.7071C8.10536 22.5196 8 22.2652 8 22C8 21.7348 8.10536 21.4804 8.29289 21.2929C8.48043 21.1054 8.73478 21 9 21H11V18.93C9.06798 18.6866 7.29107 17.7469 6.0024 16.287C4.71372 14.8271 4.00177 12.9473 4 11C4 10.7348 4.10536 10.4804 4.29289 10.2929C4.48043 10.1054 4.73478 10 5 10C5.26522 10 5.51957 10.1054 5.70711 10.2929C5.89464 10.4804 6 10.7348 6 11C6 12.5913 6.63214 14.1174 7.75736 15.2426C8.88258 16.3679 10.4087 17 12 17C13.5913 17 15.1174 16.3679 16.2426 15.2426C17.3679 14.1174 18 12.5913 18 11C18 10.7348 18.1054 10.4804 18.2929 10.2929C18.4804 10.1054 18.7348 10 19 10C19.2652 10 19.5196 10.1054 19.7071 10.2929Z" fill="black"/>
</svg>
